<?xml version="1.0" encoding="UTF-8" standalone="no"?>
<!-- Created with Inkscape (http://www.inkscape.org/) -->

<svg
   width="53.955109mm"
   height="95.817467mm"
   viewBox="0 0 53.955109 95.817467"
   version="1.1"
   id="svg1"
   inkscape:version="1.3.2 (091e20e, 2023-11-25, custom)"
   sodipodi:docname="poligono.svg"
   xmlns:inkscape="http://www.inkscape.org/namespaces/inkscape"
   xmlns:sodipodi="http://sodipodi.sourceforge.net/DTD/sodipodi-0.dtd"
   xmlns="http://www.w3.org/2000/svg"
   xmlns:svg="http://www.w3.org/2000/svg">
  <sodipodi:namedview
     id="namedview1"
     pagecolor="#ffffff"
     bordercolor="#000000"
     borderopacity="0.25"
     inkscape:showpageshadow="2"
     inkscape:pageopacity="0.0"
     inkscape:pagecheckerboard="0"
     inkscape:deskcolor="#d1d1d1"
     inkscape:document-units="mm"
     inkscape:zoom="1.3843855"
     inkscape:cx="55.981516"
     inkscape:cy="248.84687"
     inkscape:window-width="1920"
     inkscape:window-height="991"
     inkscape:window-x="-9"
     inkscape:window-y="404"
     inkscape:window-maximized="1"
     inkscape:current-layer="layer1" />
  <defs
     id="defs1" />
  <g
     inkscape:label="Capa 1"
     inkscape:groupmode="layer"
     id="layer1"
     transform="translate(-85.187019,-64.598457)">
    <path
       style="fill:#ffffff;fill-opacity:1;stroke:#000000;stroke-width:1.15673;stroke-dashoffset:3.99999;paint-order:stroke fill markers"
       d="m 109.28274,84.742625 c -2.78759,-0.485658 -4.52924,0.558372 -7.03431,0.816995 -0.85941,0.08872 -0.94785,-0.179643 -1.75858,0.272331 -0.727741,0.02722 -0.47284,0.837556 -0.879291,1.089326 -0.16258,0.10071 -0.41142,-0.08119 -0.58619,0 -0.99634,0.462875 2.114311,0.727332 3.224061,0.816995 2.77501,0.224211 5.70701,0 8.49979,0 0.7816,0 1.57837,-0.142422 2.34478,0 0.21421,0.03981 0.50034,0.480475 0.29309,0.544663 -2.96737,0.91905 -6.10048,1.311781 -9.08598,2.178654 -3.25022,0.943732 -6.053791,2.3476 -9.086001,3.812643 -0.866799,0.418801 -2.65372,0.7728 -2.34477,1.633987 0.196422,0.547518 3.2411,0.272333 3.51716,0.272333 3.810251,0 7.620511,0 11.430761,0 0.005,0 2.63787,-0.267985 2.63787,0.272332 0,0.128378 -0.17314,0.208637 -0.2931,0.272332 -1.25244,0.664979 -2.55446,1.246812 -3.81025,1.906321 -3.14291,1.650573 -2.75829,1.488473 -5.56883,3.540313 -0.49191,0.35911 -0.944981,0.7669 -1.465491,1.08932 -0.0813,0.0504 -0.29309,-0.0908 -0.29309,0 0,0.12838 0.16201,0.23174 0.29309,0.27233 0.764301,0.23673 1.553361,0.4046 2.344771,0.54467 1.26234,0.22341 2.53309,0.41281 3.81026,0.54466 1.5745,0.16255 3.50332,-0.41492 4.98264,0.27233 0.24715,0.11483 0.35627,0.40225 0.58619,0.54467 0.16258,0.1007 0.49881,-0.16239 0.58619,0 0.3908,0.72621 -1.53675,0.78018 -2.34477,1.08933 -1.73891,0.66529 -8.08292,3.96996 -9.379081,5.17429 -0.0691,0.0642 0.195391,0 0.293091,0 0.78159,0 1.56318,0 2.34477,0 1.9918,0 3.89743,-0.0927 5.86193,0.27234 1.14868,0.21345 2.56111,0.3295 2.05168,0.54465 -2.19671,0.92777 -4.55636,1.4994 -6.74122,2.45099 -1.91373,0.83351 -3.44066,2.29366 -5.275741,3.26798 -0.36483,1.40788 -1.4155,0.24911 -2.05167,0.54466 -0.17477,0.0812 -0.19344,0.51899 0,0.54467 2.53052,0.33589 5.355081,0 7.913611,0 0.78158,0 1.56317,0 2.34476,0 0.3908,0 1.17239,0.36311 1.17239,0 0,-0.98191 -1.78322,1.05646 -2.63787,1.63398 -0.35335,0.23879 -0.83674,0.28478 -1.17238,0.54467 -0.27062,0.20953 -0.42866,0.52425 -0.5862,0.81699 -0.0437,0.0812 0.0813,0.22198 0,0.27234 -0.53311,0.33022 -2.58102,0.93649 -1.75858,1.08932 2.05075,0.38109 4.66874,0 6.74122,0 0.0977,0 -0.20707,-0.043 -0.29309,0 -1.19505,0.5979 -2.35698,1.25183 -3.51717,1.90632 -15.278283,8.61893 4.26233,-2.14634 -8.499791,4.62964 -0.80025,0.42489 -1.56718,0.90188 -2.344769,1.36166 -0.297188,0.17572 -0.683892,0.27233 -0.879291,0.54466 -0.07664,0.10682 0.155168,0.2648 0.293098,0.27233 1.560482,0.0853 3.126362,0 4.689542,0 1.66088,0 3.330581,0.1588 4.982641,0 1.20206,-0.11554 2.32513,-0.6324 3.51716,-0.81699 1.2528,-0.19401 2.55293,0.16689 3.81025,0 0.0967,-0.0128 0.0898,-0.30809 0,-0.27233 -2.85675,1.13758 -1.78613,1.34104 -4.68954,3.26797 -1.10446,0.73301 -2.33419,1.28805 -3.51716,1.90633 -3.796301,1.98413 0.23727,-0.49279 -1.46548,1.08933 -0.0691,0.0642 -0.3908,0 -0.2931,0 3.71255,0 7.42511,0 11.13767,0 0.0977,0 -0.20041,-0.0287 -0.2931,0 -0.7919,0.24526 -1.61723,0.43674 -2.34477,0.81699 -0.85152,0.44504 -1.53187,1.13045 -2.34477,1.63399 -0.65538,0.40597 -1.43661,0.63213 -2.05167,1.08933 -0.38146,0.28353 -0.50402,0.79875 -0.8793,1.08932 -0.23734,0.18377 -0.63804,0.093 -0.87929,0.27233 -0.33682,0.25037 -1.17238,1.45823 -1.17238,1.90632 0,0.0908 0.1954,0 0.29309,0 0.5862,0 1.17239,0 1.75858,0 1.07469,0 2.2178,0.35062 3.22406,0 0.32984,-0.11492 0.33711,-0.58556 0.5862,-0.81699 0.52173,-0.48477 1.72253,-0.27234 2.34477,-0.27234 1.41794,0 10.61076,0.14483 10.84456,0 0.18178,-0.11259 0.13862,-0.40113 0.2931,-0.54466 0.69201,-0.64298 1.63041,-0.97023 2.34477,-1.63398 0.3908,-0.36311 0.64808,-0.92695 1.17239,-1.08933 0.18537,-0.0574 0.42361,0.1007 0.58619,0 0.18178,-0.1126 0.13862,-0.40113 0.2931,-0.54467 0.15447,-0.14353 0.40442,-0.15973 0.58619,-0.27233 0.094,-0.0582 1.36512,-1.71982 1.46549,-1.90632 0.0874,-0.16239 -0.0874,-0.38228 0,-0.54466 0.0437,-0.0812 0.29309,0.0908 0.29309,0 0,-1.28291 -2.98671,-2.3357 -4.10335,-2.45099 -0.4855,-0.0501 -0.99158,0.11009 -1.46548,0 -0.34174,-0.0794 -0.55223,-0.4231 -0.87929,-0.54465 -0.18142,-0.0675 -0.40082,0.0574 -0.5862,0 -0.38743,-0.12001 -0.79878,-0.64344 -1.17238,-0.817 -0.0874,-0.0406 -0.24941,0.0812 -0.2931,0 -0.51096,-0.94953 4.01035,-3.79268 4.98264,-4.35731 0.26199,-0.15214 0.63213,-0.10009 0.87929,-0.27233 0.17477,-0.12179 0.0977,-0.45389 0.2931,-0.54466 0.56645,-0.26317 1.78013,0.01 1.75858,0 -1.20493,-0.55979 -0.5252,-0.0813 -1.75858,-0.27233 -0.62809,-0.0973 -5.68395,-1.87218 -5.86193,-2.45099 -0.16104,-0.52371 -0.11496,-1.0999 0,-1.63399 0.27958,-1.29887 1.08458,-1.28007 2.05168,-2.17865 1.04986,-0.97549 1.82122,-2.07159 3.22405,-2.72332 0.38599,-0.17932 1.05414,0.12741 1.46549,0 1.29379,-0.40071 -1.06487,-0.27233 0.87929,-0.27233 0.0977,0 -0.20162,0.0318 -0.2931,0 -0.69668,-0.24274 -1.33384,-0.63509 -2.05168,-0.817 -0.56553,-0.14331 -1.2143,0.20229 -1.75857,0 -0.50195,-0.18655 -2.19901,-1.36457 -2.34478,-1.90631 -0.16475,-0.61234 -0.17312,-3.33006 0,-3.81265 0.46533,-1.29708 1.70972,-2.13324 2.63787,-2.99565 0.44235,-0.41101 0.69181,-0.98954 1.17239,-1.36166 0.15011,-0.11622 0.40082,0.0574 0.58619,0 1.08654,-0.33651 -0.35727,-0.27232 0.58619,-0.27232 0.67454,0 2.63788,-0.34465 2.63788,0.54466 0,0.0908 0.0874,0.23173 0,0.27233 -0.3838,0.1783 -1.55025,0.38881 -2.05168,0.27233 -0.64992,-0.15097 -0.74835,-1.3501 -0.87929,-1.63398 -0.13876,-0.30084 -0.48942,-0.50229 -0.5862,-0.817 -0.10735,-0.34914 0.0485,-0.72902 0,-1.08933 -0.13705,-1.01879 -0.34285,-1.00194 -0.58619,-1.90632 -0.0847,-0.3146 -0.18664,-5.099782 0,-5.446632 0.34125,-0.634142 0.92593,-1.132656 1.46548,-1.633989 0.0691,-0.06419 0.24941,0.08119 0.2931,0 0.43941,-0.816553 -0.43398,-0.816994 1.17239,-0.816994 1.18129,0 0.37153,-0.32092 1.17239,-0.816996 0.16257,-0.100708 0.39079,0 0.58618,0 2.83091,0 0.65748,-0.103053 2.63788,0.816996 0.0874,0.0406 0.2389,-0.07553 0.29309,0 0.17137,0.23885 0.12172,0.578144 0.2931,0.816994 0.0542,0.07553 0.22401,-0.06419 0.2931,0 1.05386,0.979208 1.01936,2.060545 0.58618,3.267979 -0.12738,0.355077 -0.0696,0.777904 -0.29309,1.089327 -0.59276,0.826155 -1.85923,0.675905 -2.63787,1.089325 -0.35988,0.19108 -0.50855,0.64476 -0.87929,0.817 -0.31553,0.14659 -3.1057,0.0611 -3.22406,0 -0.54685,-0.28229 -0.75677,-0.92723 -1.17239,-1.36166 -0.45896,-0.47976 -1.15653,-0.787535 -1.46548,-1.361661 -0.83765,-1.556615 -1.68541,-7.590896 -1.17238,-9.259274 0.0759,-0.246878 0.46261,-0.315014 0.58619,-0.544663 0.18015,-0.334769 0.16571,-0.734249 0.2931,-1.089327 0.42676,-1.189569 0.21041,0.192071 0.87928,-1.361658 0.0725,-0.168569 -0.0474,-0.368528 0,-0.544663 0.0416,-0.154778 1.41709,-2.678342 1.46549,-2.723315 0.28524,-0.26504 0.90016,-0.603125 0.58619,-1.089327 -0.67742,-1.049051 -2.57236,-2.263236 -3.81025,-2.723315 -0.37402,-0.139007 -0.81209,-0.104948 -1.17239,-0.272331 -0.31506,-0.146375 -0.55222,-0.423108 -0.87929,-0.544664 -0.77497,-0.288028 -2.07952,0 -2.93096,0 -0.36504,0 -1.4839,-0.191416 -1.75858,0 -2.10578,1.467447 -4.67679,3.516624 -5.86193,5.718963 z"
       id="path1" />
    <rect
       style="fill:#0000ff;fill-rule:evenodd;stroke-width:0.19556;stroke:#000000;stroke-opacity:1"
       id="rect1"
       width="5.8619289"
       height="5.1743002"
       x="111.62752"
       y="76.845009" />
  </g>
</svg>
