<?xml version="1.0" encoding="UTF-8" standalone="no"?>
<!-- Created with Inkscape (http://www.inkscape.org/) -->

<svg
    version="1.1"
    id="svg1"
    width="262.89349"
    height="128.07646"
    viewBox="0 0 262.89349 128.07646"
    sodipodi:docname="image.svg"
    xml:space="preserve"
    inkscape:export-filename="..\Desktop\image.svg"
    inkscape:export-xdpi="96"
    inkscape:export-ydpi="96"
    inkscape:version="1.3.2 (091e20e, 2023-11-25, custom)"
    xmlns:inkscape="http://www.inkscape.org/namespaces/inkscape"
    xmlns:sodipodi="http://sodipodi.sourceforge.net/DTD/sodipodi-0.dtd"
    xmlns="http://www.w3.org/2000/svg"
    xmlns:svg="http://www.w3.org/2000/svg"><defs
      id="defs1" /><sodipodi:namedview
      id="namedview1"
      pagecolor="#ffffff"
      bordercolor="#000000"
      borderopacity="0.25"
      inkscape:showpageshadow="2"
      inkscape:pageopacity="0.0"
      inkscape:pagecheckerboard="0"
      inkscape:deskcolor="#d1d1d1"
      showgrid="false"
      inkscape:zoom="4.6292511"
      inkscape:cx="131.55476"
      inkscape:cy="64.049237"
      inkscape:window-width="1920"
      inkscape:window-height="1009"
      inkscape:window-x="1912"
      inkscape:window-y="-8"
      inkscape:window-maximized="1"
      inkscape:current-layer="g8" /><g
      id="g8"
      transform="translate(-286.02334,-154.8929)">
        <path
        id="circleA1"
        style="fill:none;stroke:#68c8f3;stroke-width:12.8272"
        d="m 334.41608,253.80769 a 20.989571,20.989571 0 0 1 -20.98957,20.98957 20.989571,20.989571 0 0 1 -20.98957,-20.98957 20.989571,20.989571 0 0 1 20.98957,-20.98957 20.989571,20.989571 0 0 1 20.98957,20.98957 z"
        inkscape:label="circleA1" />
        <path
        id="circleA2"
        style="fill:none;stroke:#68c8f3;stroke-width:12.8272"
        d="m 374.27503,182.29607 a 20.989571,20.989571 0 0 1 -20.98957,20.98957 20.989571,20.989571 0 0 1 -20.98957,-20.98957 20.989571,20.989571 0 0 1 20.98957,-20.98957 20.989571,20.989571 0 0 1 20.98957,20.98957 z"
        inkscape:label="circleA2" />
        <path
        id="circleA3"
        style="fill:none;stroke:#68c8f3;stroke-width:12.8272"
        d="m 414.72013,253.80769 a 20.989571,20.989571 0 0 1 -20.98957,20.98957 20.989571,20.989571 0 0 1 -20.98957,-20.98957 20.989571,20.989571 0 0 1 20.98957,-20.98957 20.989571,20.989571 0 0 1 20.98957,20.98957 z"
        inkscape:label="circleA3" />
        <path
        id="circleT1"
        style="fill:none;stroke:#53a6dc;stroke-width:12.8272"
        d="m 455.16523,183.46838 a 20.989571,20.989571 0 0 1 -20.98957,20.98957 20.989571,20.989571 0 0 1 -20.98957,-20.98957 20.989571,20.989571 0 0 1 20.98957,-20.98957 20.989571,20.989571 0 0 1 20.98957,20.98957 z"
        inkscape:label="circleT1" />
        <path
        id="circleT2"
        style="fill:none;stroke:#53a6dc;stroke-width:12.8272"
        d="m 542.50324,183.46838 a 20.989571,20.989571 0 0 1 -20.98957,20.98957 20.989571,20.989571 0 0 1 -20.98957,-20.98957 20.989571,20.989571 0 0 1 20.98957,-20.98957 20.989571,20.989571 0 0 1 20.98957,20.98957 z"
        inkscape:label="circleT2" />
        <path
        id="circleT3"
        style="fill:none;stroke:#53a6dc;stroke-width:12.8272"
        d="m 497.95502,255.56618 a 20.989571,20.989571 0 0 1 -20.98957,20.98957 20.989571,20.989571 0 0 1 -20.98957,-20.98957 20.989571,20.989571 0 0 1 20.98957,-20.98957 20.989571,20.989571 0 0 1 20.98957,20.98957 z"
        inkscape:label=" circleT3" />
        <path
        id="rectA1"
        style="fill:none;stroke:#68c8f3;stroke-width:11.4228"
        d="m 325.57059,235.58531 20.26478,-33.42094 0.34075,0.2298 -20.26478,33.42095 z"
        inkscape:label="rectA1" />
        <path
        id="rectA2"
        style="fill:none;stroke:#68c8f3;stroke-width:11.9633"
        transform="matrix(-0.52698948,-0.8498718,-0.83480947,0.55053896,0,0)"
        d="m -408.02631,-201.2513 h 40.71876 v 0.43222 h -40.71876 z"
        inkscape:label="rectA2" />
        <path
        id="rectT1"
        style="fill:none;stroke:#53a6dc;stroke-width:10.3042"
        transform="matrix(-1.0643274e-4,-0.99999999,-0.99932791,0.03665694,0,0)"
        d="m -250.45772,-477.50449 h 40.06393 v 0.32589 h -40.06393 z"
        inkscape:label="rectT1" />
        
        <path
        id="rectT2"
        style="fill:none;stroke:#53a6dc;stroke-width:10.5722"
        transform="matrix(0.99999999,-1.2622241e-4,-0.03091572,-0.99952199,0,0)"
        d="m 453.38626,-183.36288 h 37.7502 v 0.36408 h -37.7502 z"
        inkscape:label="rectT2" /></g></svg>
