<?xml version="1.0" encoding="UTF-8" standalone="no"?>
<svg
   viewBox="0 0 705.33331 259.11066"
   height="259.11066"
   width="705.33331"
   xml:space="preserve"
   id="svg2"
   version="1.1"
   sodipodi:docname="INSTITUTO-ALAN-TURING-LOGOTIPO.svg"
   inkscape:version="1.3.2 (091e20e, 2023-11-25, custom)"
   xmlns:inkscape="http://www.inkscape.org/namespaces/inkscape"
   xmlns:sodipodi="http://sodipodi.sourceforge.net/DTD/sodipodi-0.dtd"
   xmlns="http://www.w3.org/2000/svg"
   xmlns:svg="http://www.w3.org/2000/svg"
   xmlns:rdf="http://www.w3.org/1999/02/22-rdf-syntax-ns#"
   xmlns:cc="http://creativecommons.org/ns#"
   xmlns:dc="http://purl.org/dc/elements/1.1/"><sodipodi:namedview
     id="namedview1"
     pagecolor="#ffffff"
     bordercolor="#000000"
     borderopacity="0.25"
     inkscape:showpageshadow="2"
     inkscape:pageopacity="0.0"
     inkscape:pagecheckerboard="0"
     inkscape:deskcolor="#d1d1d1"
     inkscape:zoom="0.85349719"
     inkscape:cx="322.78958"
     inkscape:cy="161.10188"
     inkscape:window-width="1920"
     inkscape:window-height="991"
     inkscape:window-x="-9"
     inkscape:window-y="-9"
     inkscape:window-maximized="1"
     inkscape:current-layer="layer1" /><metadata
     id="metadata8"><rdf:RDF><cc:Work
         rdf:about=""><dc:format>image/svg+xml</dc:format><dc:type
           rdf:resource="http://purl.org/dc/dcmitype/StillImage" /></cc:Work></rdf:RDF></metadata><defs
     id="defs6"><clipPath
       id="clipPath18"
       clipPathUnits="userSpaceOnUse"><path
         id="path16"
         d="M 0,194.333 H 529 V 0 H 0 Z" /></clipPath></defs><g
     inkscape:label="Capa 1"
     inkscape:groupmode="layer"
     id="layer1"
     transform="matrix(-0.04275734,1.3936473,-2.2322319,-0.02669464,779.45247,32.551034)">
     <path
       d="m 105.98456,257.69996 0.33786,14.12968 39.1348,1.09973 0.29354,12.27556 -39.13483,-1.09972 1.09007,45.58578 -21.482111,-0.60366 -79.5589491,-48.30204 -0.281283,-11.76411 84.9945921,2.38845 -0.33784,-14.12961 z m -14.312691,25.9853 -62.765355,-1.76379 63.647465,38.65439 z"
       id="text1"
       style="font-size:8.27498px;font-family:Sans;-inkscape-font-specification:'Sans, Normal';fill:#ffffff;fill-opacity:1;stroke:#346db3;stroke-width:12.37;stroke-dasharray:none;stroke-dashoffset:3.99999;stroke-opacity:1;paint-order:stroke fill markers"
       aria-label="4" />
       <path
       d="m 74.437559,159.50685 q 37.453661,1.05249 55.205671,9.60168 17.65706,8.48281 18.06066,25.36164 0.40978,17.13464 -17.14687,24.56398 -17.55812,7.36534 -54.357941,6.3312 -37.08013,-1.04205 -54.92392,-9.52995 -17.9373281,-8.49068 -18.3424411,-25.43353 -0.409731,-17.13454 17.4285661,-24.49205 17.74336,-7.42396 54.076275,-6.40297 z m 42.805981,18.00646 q -7.61893,-2.45018 -17.818031,-3.50356 -10.29393,-1.11941 -24.67759,-1.52342 -14.196974,-0.39888 -24.637969,0.13784 -10.442553,0.4735 -17.672706,2.5701 -7.138419,2.03561 -10.687749,5.83334 -3.550855,3.7338 -3.405672,9.80758 0.143772,6.00991 3.881159,10.07641 3.735851,4.00237 11.169518,6.51143 6.963651,2.36785 18.09827,3.51145 11.133011,1.07973 24.395909,1.45256 14.57049,0.40927 24.360851,-0.0175 9.79029,-0.427 17.48744,-2.51147 7.23475,-1.90523 10.97247,-5.63363 3.73623,-3.79243 3.58341,-10.18599 -0.14378,-6.00988 -3.88125,-10.0763 -3.73739,-4.06641 -11.16805,-6.44755 z"
       id="text2"
       style="font-size:8.27498px;font-family:Sans;-inkscape-font-specification:'Sans, Normal';fill:#ffffff;stroke:#346db3;stroke-width:12.37;stroke-dasharray:none;stroke-dashoffset:3.99999;stroke-opacity:1;paint-order:stroke fill markers"
       aria-label="0" />
       <path
       d="m 99.277649,56.359208 0.33784,14.129653 39.134871,1.099773 0.29349,12.275546 -39.134761,-1.099766 1.090121,45.585876 -21.482231,-0.60369 -79.5590221,-48.301978 -0.28132,-11.764186 84.9947021,2.388478 -0.3379,-14.129658 z M 84.964789,82.3445 22.199613,80.580697 85.846959,119.23513 Z"
       id="text3"
       style="font-size:8.27498px;font-family:Sans;-inkscape-font-specification:'Sans, Normal';fill:#ffffff;stroke:#346db3;stroke-width:12.37;stroke-dasharray:none;stroke-dashoffset:3.99999;stroke-opacity:1;paint-order:stroke fill markers"
       aria-label="4" /></g></svg>
