<?xml version="1.0" encoding="UTF-8" standalone="no"?>
<!-- Created with Inkscape (http://www.inkscape.org/) -->

<svg
   width="210mm"
   height="297mm"
   viewBox="0 0 210 297"
   version="1.1"
   id="svg1"
   inkscape:version="1.3.2 (091e20e, 2023-11-25, custom)"
   sodipodi:docname="dibujo-telefono.svg"
   xmlns:inkscape="http://www.inkscape.org/namespaces/inkscape"
   xmlns:sodipodi="http://sodipodi.sourceforge.net/DTD/sodipodi-0.dtd"
   xmlns="http://www.w3.org/2000/svg"
   xmlns:svg="http://www.w3.org/2000/svg">
  <sodipodi:namedview
     id="namedview1"
     pagecolor="#ffffff"
     bordercolor="#000000"
     borderopacity="0.25"
     inkscape:showpageshadow="2"
     inkscape:pageopacity="0.0"
     inkscape:pagecheckerboard="0"
     inkscape:deskcolor="#d1d1d1"
     inkscape:document-units="mm"
     inkscape:zoom="4"
     inkscape:cx="319.375"
     inkscape:cy="559.375"
     inkscape:window-width="1920"
     inkscape:window-height="991"
     inkscape:window-x="-9"
     inkscape:window-y="-9"
     inkscape:window-maximized="1"
     inkscape:current-layer="layer1" />
  <defs
     id="defs1" />
  <g
     inkscape:label="Capa 1"
     inkscape:groupmode="layer"
     id="layer1">
    <rect
       style="fill:#838383;fill-opacity:0.867209;stroke-width:1.68124;paint-order:stroke fill markers"
       id="rect2-5"
       width="57.886063"
       height="91.955978"
       x="171.41782"
       y="-6.7722239"
       ry="11.045766"
       transform="matrix(0.67758918,0.73544062,-0.8986511,0.43866411,0,0)" />
    <rect
       style="fill:#d1d1d1;fill-opacity:0.867209;stroke-width:1.68124;paint-order:stroke fill markers"
       id="rect1"
       width="57.886063"
       height="91.955978"
       x="164.33101"
       y="-12.29613"
       ry="11.045766"
       transform="matrix(0.67758918,0.73544062,-0.8986511,0.43866411,0,0)" />
    <rect
       style="opacity:0.68;fill:#000000;fill-opacity:0.867209;stroke-width:1.4479;paint-order:stroke fill markers"
       id="rect3-6-3-5-2"
       width="53.445568"
       height="50.992676"
       x="-53.873062"
       y="-210.00623"
       ry="0"
       transform="matrix(0.88623668,-0.46323271,-0.65688652,-0.75398945,0,0)" />
    <rect
       style="opacity:0.68;fill:#000000;fill-opacity:0.867209;stroke-width:1.29397;paint-order:stroke fill markers"
       id="rect3-6-3-5-2-7"
       width="48.042164"
       height="45.307575"
       x="-32.84763"
       y="-210.9155"
       ry="0"
       transform="matrix(0.89238884,-0.45126727,-0.66917948,-0.74310082,0,0)" />
    <rect
       style="fill:#000000;fill-opacity:0.867209;stroke-width:1.68124;paint-order:stroke fill markers"
       id="rect3"
       width="57.603706"
       height="63.789284"
       x="164.33101"
       y="0.68263739"
       ry="0"
       transform="matrix(0.67758918,0.73544062,-0.8986511,0.43866411,0,0)" />
    <ellipse
       style="fill:#303030;fill-opacity:0.867209;stroke-width:1.70733;paint-order:stroke fill markers"
       id="path4"
       cx="193.55643"
       cy="72.342026"
       rx="4.9414926"
       ry="4.5563769"
       transform="matrix(0.67758918,0.73544062,-0.8986511,0.43866411,0,0)" />
    <path
       style="fill:#888888;fill-opacity:0.867209;stroke-width:1.593;paint-order:stroke fill markers"
       d="m 44.910982,167.63261 -0.319653,-1.93852 0.218398,-1.91948 -0.140657,-5.84558 0.152185,1.47214 0.288539,0.97992 0.524279,1.2119 0.687789,1.18718 z"
       id="path10" />
    <path
       style="fill:#888888;fill-opacity:0.867209;stroke-width:1.593;paint-order:stroke fill markers"
       d="m 154.58897,168.11353 1.10794,-1.57096 0.66146,-1.98438 0.0827,-1.50482 0.1819,-8.16901 -0.17842,2.38327 -0.78069,2.01543 -1.12448,1.45521 -1.09141,0.99219 z"
       id="path11" />
    <rect
       style="fill:#d1d1d1;fill-opacity:0.867209;stroke-width:1.69134;paint-order:stroke fill markers"
       id="rect3-6-3-5"
       width="57.61478"
       height="64.544952"
       x="148.89783"
       y="-7.0698829"
       ry="0"
       transform="matrix(0.69702863,0.7170433,-0.90329742,0.42901488,0,0)" />
    <rect
       style="fill:#646262;fill-opacity:0.95393;stroke-width:1.19458;paint-order:stroke fill markers"
       id="rect13-0-5-6"
       width="18.917707"
       height="1.6803353"
       x="182.95065"
       y="31.04133"
       ry="0"
       transform="matrix(0.6936746,0.72028852,-0.90787061,0.41925046,0,0)" />
    <rect
       style="fill:#646262;fill-opacity:0.95393;stroke-width:1.19667;paint-order:stroke fill markers"
       id="rect13-0-1-4"
       width="18.983852"
       height="1.6803353"
       x="182.95065"
       y="35.172146"
       ry="0"
       transform="matrix(0.6936746,0.72028852,-0.90787061,0.41925046,0,0)" />
    <rect
       style="fill:#646262;fill-opacity:0.95393;stroke-width:1.1904;paint-order:stroke fill markers"
       id="rect13-0-7-7"
       width="18.785416"
       height="1.6803353"
       x="183.01678"
       y="39.302982"
       ry="0"
       transform="matrix(0.6936746,0.72028852,-0.90787061,0.41925046,0,0)" />
    <rect
       style="fill:#646262;fill-opacity:0.95393;stroke-width:1.19667;paint-order:stroke fill markers"
       id="rect13-0-8-4"
       width="18.983852"
       height="1.6803353"
       x="182.88451"
       y="43.363796"
       ry="0"
       transform="matrix(0.6936746,0.72028852,-0.90787061,0.41925046,0,0)" />
    <rect
       style="fill:#646262;fill-opacity:0.95393;stroke-width:1.19667;paint-order:stroke fill markers"
       id="rect13-0-83-3"
       width="18.983852"
       height="1.6803353"
       x="182.88451"
       y="47.284569"
       ry="0"
       transform="matrix(0.6936746,0.72028852,-0.90787061,0.41925046,0,0)" />
    <rect
       style="fill:#646262;fill-opacity:0.95393;stroke-width:1.19874;paint-order:stroke fill markers"
       id="rect13-0-77"
       width="19.049999"
       height="1.6803353"
       x="182.68607"
       y="26.840504"
       ry="0"
       transform="matrix(0.6936746,0.72028852,-0.90787061,0.41925046,0,0)" />
    <rect
       style="fill:#646262;fill-opacity:0.95393;stroke-width:1.37697;paint-order:stroke fill markers"
       id="rect13-14-1"
       width="25.135416"
       height="1.6803353"
       x="154.44177"
       y="47.284569"
       ry="0"
       transform="matrix(0.6936746,0.72028852,-0.90787061,0.41925046,0,0)" />
    <rect
       style="fill:#646262;fill-opacity:0.95393;stroke-width:1.37697;paint-order:stroke fill markers"
       id="rect13-24-9"
       width="25.135416"
       height="1.6803353"
       x="154.37566"
       y="43.293774"
       ry="0"
       transform="matrix(0.6936746,0.72028852,-0.90787061,0.41925046,0,0)" />
    <rect
       style="fill:#646262;fill-opacity:0.95393;stroke-width:1.37697;paint-order:stroke fill markers"
       id="rect13-9-7"
       width="25.135416"
       height="1.6803353"
       x="154.37566"
       y="39.162952"
       ry="0"
       transform="matrix(0.6936746,0.72028852,-0.90787061,0.41925046,0,0)" />
    <rect
       style="fill:#646262;fill-opacity:0.95393;stroke-width:1.37697;paint-order:stroke fill markers"
       id="rect13-2-2"
       width="25.135416"
       height="1.6803353"
       x="154.24336"
       y="35.032131"
       ry="0"
       transform="matrix(0.6936746,0.72028852,-0.90787061,0.41925046,0,0)" />
    <rect
       style="fill:#646262;fill-opacity:0.95393;stroke-width:1.37697;paint-order:stroke fill markers"
       id="rect13-1-2"
       width="25.135416"
       height="1.6803353"
       x="154.24336"
       y="30.971323"
       ry="0"
       transform="matrix(0.6936746,0.72028852,-0.90787061,0.41925046,0,0)" />
    <rect
       style="fill:#180ea2;fill-opacity:0.867209;stroke-width:0.461662;paint-order:stroke fill markers"
       id="rect3-6-6-7"
       width="57.531155"
       height="4.8159451"
       x="149.86514"
       y="52.162502"
       ry="0"
       transform="matrix(0.69392428,0.72004798,-0.91039987,0.41372946,0,0)" />
    <rect
       style="fill:#150c90;fill-opacity:0.867209;stroke-width:0.747498;paint-order:stroke fill markers"
       id="rect3-6-5"
       width="57.542419"
       height="12.623153"
       x="148.75459"
       y="-7.8742142"
       ry="0"
       transform="matrix(0.69432962,0.71965713,-0.90883952,0.41714593,0,0)" />
    <rect
       style="fill:#e6e4fd;fill-opacity:0.95393;stroke-width:1.67148;paint-order:stroke fill markers"
       id="rect11-3"
       width="41.142708"
       height="5.7411442"
       x="157.68292"
       y="-4.5957623"
       ry="2.8705721"
       transform="matrix(0.6936746,0.72028852,-0.90787061,0.41925046,0,0)" />
    <rect
       style="fill:#44c3fa;fill-opacity:0.95393;stroke-width:1.53684;paint-order:stroke fill markers"
       id="rect12-2"
       width="48.154167"
       height="14.282845"
       x="153.71417"
       y="8.2868109"
       ry="0"
       transform="matrix(0.6936746,0.72028852,-0.90787061,0.41925046,0,0)" />
    <rect
       style="fill:#646262;fill-opacity:0.95393;stroke-width:1.37697;paint-order:stroke fill markers"
       id="rect13-22"
       width="25.135416"
       height="1.6803353"
       x="154.11107"
       y="26.770489"
       ry="0"
       transform="matrix(0.6936746,0.72028852,-0.90787061,0.41925046,0,0)" />
    <text
       xml:space="preserve"
       style="font-style:normal;font-variant:normal;font-weight:600;font-stretch:normal;font-size:8.46667px;font-family:Sans;-inkscape-font-specification:'Sans, Semi-Bold';font-variant-ligatures:normal;font-variant-caps:normal;font-variant-numeric:normal;font-variant-east-asian:normal;fill:#ffffff;fill-opacity:0.95393;stroke-width:1.593;paint-order:stroke fill markers"
       x="163.76836"
       y="17.750832"
       id="text13-3"
       transform="matrix(0.6936746,0.72028853,-0.96096166,0.44376764,0,0)"><tspan
         sodipodi:role="line"
         id="tspan13-6"
         style="font-style:normal;font-variant:normal;font-weight:600;font-stretch:normal;font-size:8.46667px;font-family:Sans;-inkscape-font-specification:'Sans, Semi-Bold';font-variant-ligatures:normal;font-variant-caps:normal;font-variant-numeric:normal;font-variant-east-asian:normal;fill:#ffffff;fill-opacity:0.95393;stroke-width:1.593"
         x="163.76836"
         y="17.750832">NEWS</tspan></text>
    <rect
       style="opacity:0.77;fill:#000000;fill-opacity:0.867209;stroke-width:1.37378;paint-order:stroke fill markers"
       id="rect3-6-3-1"
       width="46.901356"
       height="52.310829"
       x="146.62906"
       y="-11.097138"
       ry="0"
       transform="matrix(0.681396,0.73191495,-0.89473016,0.44660715,0,0)"
       inkscape:transform-center-x="9.8523753"
       inkscape:transform-center-y="-39.24912" />
    <rect
       style="fill:#d1d1d1;fill-opacity:0.867209;stroke-width:1.71019;paint-order:stroke fill markers"
       id="rect3-6-3"
       width="57.318619"
       height="66.33316"
       x="130.24837"
       y="-20.324865"
       ry="0"
       transform="matrix(0.72178196,0.69212051,-0.91341832,0.40702207,0,0)"
       inkscape:transform-center-x="12.75434"
       inkscape:transform-center-y="-45.358782" />
    <rect
       style="fill:#d75454;fill-opacity:0.95393;stroke-width:1.1363;paint-order:stroke fill markers"
       id="rect13-0-8-3"
       width="16.647163"
       height="1.727734"
       x="141.4183"
       y="29.045067"
       ry="0"
       transform="matrix(0.71850923,0.69551742,-0.91752388,0.39768068,0,0)"
       inkscape:transform-center-x="35.572407"
       inkscape:transform-center-y="-44.526608" />
    <rect
       style="fill:#646262;fill-opacity:0.95393;stroke-width:1.2101;paint-order:stroke fill markers"
       id="rect13-0-8"
       width="18.879938"
       height="1.727734"
       x="163.89024"
       y="33.397221"
       ry="0"
       transform="matrix(0.71850923,0.69551742,-0.91752388,0.39768068,0,0)"
       inkscape:transform-center-x="22.617182"
       inkscape:transform-center-y="-26.389748" />
    <rect
       style="fill:#646262;fill-opacity:0.95393;stroke-width:1.2101;paint-order:stroke fill markers"
       id="rect13-0-83"
       width="18.879938"
       height="1.727734"
       x="163.98328"
       y="36.919556"
       ry="0"
       transform="matrix(0.71850923,0.69551742,-0.91752388,0.39768068,0,0)"
       inkscape:transform-center-x="25.782169"
       inkscape:transform-center-y="-24.924283" />
    <rect
       style="fill:#646262;fill-opacity:0.95393;stroke-width:1.39242;paint-order:stroke fill markers"
       id="rect13-14"
       width="24.997829"
       height="1.727734"
       x="135.41714"
       y="37.021362"
       ry="0"
       transform="matrix(0.71850923,0.69551742,-0.91752388,0.39768068,0,0)"
       inkscape:transform-center-x="44.202722"
       inkscape:transform-center-y="-42.624483" />
    <rect
       style="fill:#646262;fill-opacity:0.95393;stroke-width:1.39242;paint-order:stroke fill markers"
       id="rect13-24"
       width="24.997829"
       height="1.727734"
       x="135.53746"
       y="33.528831"
       ry="0"
       transform="matrix(0.71850923,0.69551742,-0.91752388,0.39768068,0,0)"
       inkscape:transform-center-x="40.911799"
       inkscape:transform-center-y="-43.929719" />
    <rect
       style="fill:#b51010;fill-opacity:0.867209;stroke-width:0.466914;paint-order:stroke fill markers"
       id="rect3-6-6"
       width="57.217663"
       height="4.9531302"
       x="130.97153"
       y="40.58791"
       ry="0"
       transform="matrix(0.71875299,0.69526552,-0.91979246,0.39240518,0,0)"
       inkscape:transform-center-x="40.632694"
       inkscape:transform-center-y="-32.719459" />
    <rect
       style="fill:#c91111;fill-opacity:0.867209;stroke-width:0.755954;paint-order:stroke fill markers"
       id="rect3-6"
       width="57.231178"
       height="12.980569"
       x="129.91901"
       y="-21.149313"
       ry="0"
       transform="matrix(0.71914866,0.69485625,-0.9183931,0.39566921,0,0)"
       inkscape:transform-center-x="-11.751521"
       inkscape:transform-center-y="-56.210274" />
    <rect
       style="fill:#e6e4fd;fill-opacity:0.95393;stroke-width:1.69024;paint-order:stroke fill markers"
       id="rect11"
       width="40.9175"
       height="5.9030895"
       x="138.82663"
       y="-17.747738"
       ry="2.9515448"
       transform="matrix(0.71850923,0.69551742,-0.91752388,0.39768068,0,0)"
       inkscape:transform-center-x="-12.302698"
       inkscape:transform-center-y="-55.667305" />
    <rect
       style="fill:#565656;fill-opacity:0.95393;stroke-width:2.23465;paint-order:stroke fill markers"
       id="rect12"
       width="47.890579"
       height="30.364117"
       x="134.87959"
       y="-4.5017576"
       ry="0"
       transform="matrix(0.71850923,0.69551742,-0.91752388,0.39768068,0,0)"
       inkscape:transform-center-x="11.403458"
       inkscape:transform-center-y="-45.856078" />
    <rect
       style="fill:#171717;fill-opacity:0.95393;stroke-width:1.0532;paint-order:stroke fill markers"
       id="rect12-29"
       width="47.890579"
       height="6.7447381"
       x="134.86638"
       y="19.138817"
       ry="0"
       transform="matrix(0.71850923,0.69551742,-0.91752388,0.39768068,0,0)"
       inkscape:transform-center-x="22.268076"
       inkscape:transform-center-y="-41.160357" />
    <rect
       style="fill:#f1f1f1;fill-opacity:0.95393;stroke-width:0.701336;paint-order:stroke fill markers"
       id="rect11-5"
       width="40.9175"
       height="1.0163209"
       x="138.38564"
       y="22.105194"
       ry="0.50816047"
       transform="matrix(0.71850923,0.69551742,-0.91752388,0.39768068,0,0)"
       inkscape:transform-center-x="22.338312"
       inkscape:transform-center-y="-41.096971" />
    <ellipse
       style="fill:#f1f1f1;fill-opacity:0.95393;stroke-width:1.65732;paint-order:stroke fill markers"
       id="path13"
       cx="145.2459"
       cy="22.711117"
       rx="1.5350327"
       ry="1.4762111"
       transform="matrix(0.71850923,0.69551742,-0.91752388,0.39768068,0,0)"
       inkscape:transform-center-x="32.198651"
       inkscape:transform-center-y="-50.516079" />
    <ellipse
       style="fill:#2f2f2f;fill-opacity:0.95393;stroke-width:1.91368;paint-order:stroke fill markers"
       id="path14"
       cx="158.82861"
       cy="6.6255083"
       rx="8.0472927"
       ry="8.2973251"
       transform="matrix(0.71850923,0.69551742,-0.91752388,0.39768068,0,0)"
       inkscape:transform-center-x="7.6804167"
       inkscape:transform-center-y="-47.466004" />
    <path
       sodipodi:type="star"
       style="fill:#5f5f5f;fill-opacity:0.95393;stroke-width:1.593;paint-order:stroke fill markers"
       id="path15"
       inkscape:flatsided="true"
       sodipodi:sides="3"
       sodipodi:cx="81.944839"
       sodipodi:cy="21.421654"
       sodipodi:r1="5.8873506"
       sodipodi:r2="1.9840372"
       sodipodi:arg1="0.79663365"
       sodipodi:arg2="1.8438312"
       inkscape:rounded="0"
       inkscape:randomized="0"
       d="m 86.06079,25.631149 -9.819455,-2.749725 7.291059,-7.129035 z"
       inkscape:transform-center-x="8.6506134"
       inkscape:transform-center-y="-47.580718"
       transform="matrix(-0.52687894,0.42766842,-0.61235452,-0.40613768,164.41879,86.668418)" />
    <rect
       style="fill:#d75656;fill-opacity:0.95393;stroke-width:2.43839;paint-order:stroke fill markers"
       id="rect15"
       width="4.7446465"
       height="5.0903831"
       x="135.61707"
       y="27.139755"
       ry="0"
       transform="matrix(0.71850923,0.69551742,-0.91752388,0.39768068,0,0)"
       inkscape:transform-center-x="43.811175"
       inkscape:transform-center-y="-52.789752" />
    <path
       style="opacity:1;fill:#ffffff;fill-opacity:1;stroke-width:1.68839;paint-order:stroke fill markers"
       d="m 58.001717,146.85605 6.133029,-2.84796 -1.948139,-2.02604 -5.916567,3.05036 z"
       id="path16" />
  </g>
</svg>
