<?xml version="1.0" encoding="UTF-8" standalone="no"?>
<!-- Created with Inkscape (http://www.inkscape.org/) -->

<svg
   width="162.20691mm"
   height="106.54942mm"
   viewBox="0 0 162.20691 106.54942"
   version="1.1"
   id="svg1"
   xmlns="http://www.w3.org/2000/svg"
   xmlns:svg="http://www.w3.org/2000/svg">
  <defs
     id="defs1" />
  <g
     id="layer1"
     transform="translate(-16.627343,-123.96804)">
    <g
       id="g11">
      <path
         style="fill:#2ca089;fill-opacity:1;stroke-width:0.3;stroke-linecap:round;stroke-linejoin:bevel;paint-order:fill markers stroke"
         id="path2"
         d="m 96.175793,106.70932 -10.187784,1.43862 -6.661302,7.8414 -9.689395,-3.46066 -9.542372,3.84755 -6.97128,-7.56715 -10.2374,-1.02772 -2.65613,-9.940098 -8.587162,-5.667558 2.267507,-10.035885 -4.969709,-9.009026 6.671686,-7.832571 -0.213755,-10.286635 9.547462,-3.834911 4.591166,-9.2077 10.23603,1.041281 8.344308,-6.019391 8.579646,5.678929 10.185868,-1.452114 4.95777,9.015603 9.693973,3.447826 0.20012,10.286911 6.9813,7.55791 -4.60336,9.201611 2.6693,9.936569 -8.352278,6.008332 z"
         transform="matrix(1.2812096,0.34329907,-0.34492949,1.2872944,36.267336,53.972244)" />
      <path
         style="fill:#374548;fill-opacity:1;stroke-width:0.3;stroke-linecap:round;stroke-linejoin:bevel;paint-order:fill markers stroke"
         id="path1"
         d="m 96.175793,106.70932 -10.187784,1.43862 -6.661302,7.8414 -9.689395,-3.46066 -9.542372,3.84755 -6.97128,-7.56715 -10.2374,-1.02772 -2.65613,-9.940098 -8.587162,-5.667558 2.267507,-10.035885 -4.969709,-9.009026 6.671686,-7.832571 -0.213755,-10.286635 9.547462,-3.834911 4.591166,-9.2077 10.23603,1.041281 8.344308,-6.019391 8.579646,5.678929 10.185868,-1.452114 4.95777,9.015603 9.693973,3.447826 0.20012,10.286911 6.9813,7.55791 -4.60336,9.201611 2.6693,9.936569 -8.352278,6.008332 z"
         transform="matrix(1.3264058,0,0,1.3327052,6.3631934,74.672787)" />
      <circle
         style="fill:none;fill-opacity:1;stroke:#cccccc;stroke-width:0.79375;stroke-linecap:round;stroke-linejoin:bevel;stroke-dasharray:none;stroke-opacity:1;paint-order:fill markers stroke"
         id="path3"
         cx="97.657784"
         cy="176.56638"
         r="39.6875" />
      <ellipse
         style="fill:none;fill-opacity:1;stroke:#cccccc;stroke-width:0.529167;stroke-linecap:round;stroke-linejoin:bevel;stroke-dasharray:0.529167, 2.11667;stroke-dashoffset:0;stroke-opacity:1;paint-order:fill markers stroke"
         id="circle3"
         cx="61.272869"
         cy="192.24551"
         rx="35.365101"
         ry="35.365097"
         transform="rotate(-11.268472)" />
      <g
         id="g1"
         transform="translate(8.7343164,161.62586)">
        <path
           id="rect9"
           style="fill:#37c8ab;stroke:#374548;stroke-width:0.250286;stroke-linecap:round;stroke-linejoin:bevel;paint-order:fill markers stroke"
           d="M 7.9588308,42.459347 C 16.369145,37.259977 25.300448,32.79 34.64465,29.240188 l 10.625009,27.9335 C 37.821877,60.012792 30.57936,63.654417 23.650199,67.907792 23.77838,61.860034 24.262977,55.717031 25.148725,49.520725 19.664499,46.871389 13.915587,44.512392 7.9588308,42.459347 Z" />
        <g
           id="g35"
           transform="matrix(1,0,0,1.3950475,19.94155,-68.714938)">
          <path
             d="m 24.735445,89.08237 c 0.248367,0.403876 0.496276,0.807885 0.743725,1.212027 -1.7e-4,4.6e-5 -3.4e-4,9.3e-5 -5.11e-4,1.39e-4 -4.241676,0.918253 -8.453256,2.022715 -12.61027,3.292405 1.61e-4,-9.7e-5 3.23e-4,-1.93e-4 4.84e-4,-2.89e-4 3.849287,-1.652314 7.808914,-3.162164 11.866572,-4.504282 z"
             style="fill:#374548;fill-rule:evenodd;stroke-width:0.201216"
             id="path14" />
          <path
             d="m 24.263974,88.193413 c 0.248717,0.403817 0.496975,0.807768 0.744774,1.211852 -1.89e-4,1.6e-5 -3.78e-4,3.2e-5 -5.67e-4,4.8e-5 -4.288469,0.93079 -8.543999,2.048944 -12.742122,3.333479 1.54e-4,-9.4e-5 3.09e-4,-1.88e-4 4.64e-4,-2.82e-4 0.0431,-0.01844 2.962228,-1.269294 5.951724,-2.402306 2.991225,-1.133668 6.045727,-2.142791 6.045727,-2.142791 z"
             style="fill:#374548;fill-rule:evenodd;stroke-width:0.201216"
             id="path15" />
          <path
             d="m 23.792504,87.304456 c 0.249049,0.403728 0.49764,0.80759 0.745771,1.211585 -1.9e-4,1.6e-5 -3.81e-4,3.2e-5 -5.72e-4,4.8e-5 -0.04557,0.01 -3.298287,0.719989 -6.506839,1.562669 -3.208318,0.842618 -6.367136,1.811885 -6.367136,1.811885 1.48e-4,-9.1e-5 2.96e-4,-1.83e-4 4.44e-4,-2.74e-4 0.04136,-0.01769 2.991087,-1.279646 6.013735,-2.42306 3.024288,-1.144034 6.114597,-2.162853 6.114597,-2.162853 z"
             style="fill:#374548;fill-rule:evenodd;stroke-width:0.201216"
             id="path16" />
          <path
             d="m 23.321034,86.415499 c 0.249382,0.403639 0.498305,0.807411 0.746769,1.211317 -1.92e-4,1.7e-5 -3.85e-4,3.3e-5 -5.78e-4,5e-5 -0.04363,0.0095 -3.331442,0.728911 -6.573443,1.581955 -3.241863,0.853008 -6.432384,1.833673 -6.432384,1.833673 1.41e-4,-8.8e-5 2.82e-4,-1.77e-4 4.23e-4,-2.66e-4 0.03961,-0.01688 3.019932,-1.289939 6.075734,-2.443769 3.057352,-1.154415 6.183479,-2.18296 6.183479,-2.18296 z"
             style="fill:#374548;fill-rule:evenodd;stroke-width:0.201216"
             id="path17" />
          <path
             d="m 22.849564,85.526541 c 0.249714,0.40355 0.49897,0.807233 0.747767,1.21105 -1.65e-4,9e-6 -3.3e-4,1.8e-5 -4.95e-4,2.8e-5 -0.04166,0.0092 -3.364587,0.737882 -6.640066,1.601286 -3.275439,0.863392 -6.497703,1.855441 -6.497703,1.855441 1.56e-4,-5.7e-5 3.11e-4,-1.14e-4 4.66e-4,-1.7e-4 0.03774,-0.01614 3.048647,-1.300326 6.137616,-2.464577 3.09043,-1.164802 6.252415,-2.203058 6.252415,-2.203058 z"
             style="fill:#374548;fill-rule:evenodd;stroke-width:0.201216"
             id="path18" />
          <path
             d="m 22.378093,84.637584 c 0.250047,0.403461 0.499636,0.807055 0.748766,1.210782 -1.67e-4,1e-5 -3.33e-4,1.9e-5 -5e-4,2.9e-5 -0.03962,0.0087 -3.397643,0.746776 -6.706597,1.62055 -3.309011,0.87379 -6.5630251,1.877252 -6.5630251,1.877252 1.451e-4,-5.3e-5 2.902e-4,-1.06e-4 4.353e-4,-1.59e-4 0.035907,-0.0153 3.0774048,-1.310589 6.1995498,-2.485266 3.123517,-1.175192 6.321371,-2.223188 6.321371,-2.223188 z"
             style="fill:#374548;fill-rule:evenodd;stroke-width:0.201216"
             id="path19" />
          <path
             d="m 21.906673,83.748721 c 0.250363,0.40334 0.500267,0.806813 0.749714,1.21042 -1.69e-4,1e-5 -3.37e-4,2e-5 -5.05e-4,3.1e-5 -0.03751,0.0083 -3.430622,0.755701 -6.77307,1.639837 -3.342603,0.884178 -6.6284056,1.899039 -6.6284056,1.899039 1.377e-4,-5e-5 2.754e-4,-1e-4 4.131e-4,-1.51e-4 0.033985,-0.01449 3.1060905,-1.320856 6.2614455,-2.505928 3.156635,-1.185553 6.390408,-2.243248 6.390408,-2.243248 z"
             style="fill:#374548;fill-rule:evenodd;stroke-width:0.201216"
             id="path20" />
          <path
             d="m 21.435202,82.859763 c 0.250696,0.403251 0.500933,0.806636 0.750712,1.210153 -1.22e-4,3.4e-5 -2.45e-4,6.7e-5 -3.67e-4,10e-5 -0.03543,0.0078 -3.463684,0.764513 -6.839651,1.659019 -3.376222,0.894574 -6.6938201,1.920864 -6.6938201,1.920864 1.302e-4,-4.7e-5 2.603e-4,-9.5e-5 3.905e-4,-1.42e-4 0.032054,-0.01361 3.1347476,-1.331087 6.3232996,-2.526592 3.189743,-1.195952 6.459436,-2.263402 6.459436,-2.263402 z"
             style="fill:#374548;fill-rule:evenodd;stroke-width:0.201216"
             id="path21" />
          <path
             d="m 20.963732,81.970806 c 0.251028,0.403162 0.501598,0.806457 0.75171,1.209886 -1.24e-4,3.3e-5 -2.48e-4,6.7e-5 -3.72e-4,1.01e-4 -0.03321,0.0073 -3.496562,0.773408 -6.90605,1.678283 -3.409842,0.904969 -6.7592745,1.942675 -6.7592745,1.942675 1.224e-4,-4.5e-5 2.448e-4,-9e-5 3.673e-4,-1.34e-4 0.030042,-0.01276 3.1633232,-1.341346 6.3850942,-2.547278 3.22287,-1.206345 6.528525,-2.283533 6.528525,-2.283533 z"
             style="fill:#374548;fill-rule:evenodd;stroke-width:0.201216"
             id="path22" />
          <path
             d="m 20.492262,81.081849 c 0.25136,0.403072 0.502263,0.806278 0.752708,1.209618 -1.25e-4,3.4e-5 -2.5e-4,6.8e-5 -3.76e-4,1.02e-4 -0.03097,0.0068 -3.529419,0.782243 -6.972435,1.697502 -3.443469,0.91538 -6.824744,1.964531 -6.824744,1.964531 1.145e-4,-4.2e-5 2.291e-4,-8.4e-5 3.436e-4,-1.26e-4 0.028021,-0.01186 3.1918864,-1.351544 6.4468774,-2.567919 3.255999,-1.216751 6.597626,-2.303708 6.597626,-2.303708 z"
             style="fill:#374548;fill-rule:evenodd;stroke-width:0.201216"
             id="path23" />
          <path
             d="m 20.020792,80.192892 c 0.251693,0.402983 0.502928,0.8061 0.753706,1.20935 -9.5e-5,2.6e-5 -1.9e-4,5.2e-5 -2.85e-4,7.7e-5 -0.02869,0.0064 -3.562269,0.791128 -7.038845,1.716767 -3.477128,0.925785 -6.8902835,1.986367 -6.8902835,1.986367 1.034e-4,-3.8e-5 2.069e-4,-7.5e-5 3.103e-4,-1.13e-4 0.025923,-0.01098 3.2203752,-1.361775 6.5086082,-2.588586 3.289148,-1.227153 6.666789,-2.323862 6.666789,-2.323862 z"
             style="fill:#374548;fill-rule:evenodd;stroke-width:0.201216"
             id="path24" />
          <path
             d="m 19.549321,79.303935 c 0.252026,0.402894 0.503594,0.805921 0.754704,1.209082 -9.5e-5,2.6e-5 -1.91e-4,5.2e-5 -2.87e-4,7.8e-5 -0.02634,0.0058 -3.595026,0.799934 -7.105158,1.735963 -3.510783,0.936203 -6.955826,2.008246 -6.955826,2.008246 9.52e-5,-3.4e-5 1.904e-4,-6.9e-5 2.856e-4,-1.04e-4 0.023806,-0.01004 3.248839,-1.371941 6.5703154,-2.609203 3.3223,-1.237569 6.735966,-2.344062 6.735966,-2.344062 z"
             style="fill:#374548;fill-rule:evenodd;stroke-width:0.201216"
             id="path25" />
          <path
             d="m 19.077851,78.414978 c 0.252358,0.402804 0.504259,0.805742 0.755702,1.208814 -9.7e-5,2.7e-5 -1.93e-4,5.3e-5 -2.9e-4,7.9e-5 -0.02391,0.0053 -3.627706,0.80877 -7.171412,1.755182 -3.5444577,0.946613 -7.0214275,2.030103 -7.0214275,2.030103 8.68e-5,-3.2e-5 1.735e-4,-6.4e-5 2.603e-4,-9.5e-5 0.021618,-0.0091 3.2772315,-1.382139 6.6319702,-2.629846 3.355468,-1.247978 6.805197,-2.364237 6.805197,-2.364237 z"
             style="fill:#374548;fill-rule:evenodd;stroke-width:0.201216"
             id="path26" />
          <path
             d="m 18.606381,77.526021 c 0.252691,0.402715 0.504924,0.805564 0.7567,1.208546 -6.5e-5,1.8e-5 -1.3e-4,3.6e-5 -1.96e-4,5.4e-5 -0.0215,0.0048 -3.660436,0.817565 -7.237736,1.774378 -3.5781523,0.957041 -7.087056,2.052008 -7.087056,2.052008 7.82e-5,-2.9e-5 1.564e-4,-5.7e-5 2.345e-4,-8.6e-5 0.019411,-0.0081 3.3056017,-1.392274 6.6936055,-2.650441 3.388641,-1.258403 6.874448,-2.384459 6.874448,-2.384459 z"
             style="fill:#374548;fill-rule:evenodd;stroke-width:0.201216"
             id="path27" />
          <path
             d="m 18.134911,76.637064 c 0.253023,0.402625 0.505589,0.805385 0.757698,1.208279 -6.6e-5,1.7e-5 -1.32e-4,3.5e-5 -1.98e-4,5.3e-5 -0.01897,0.0042 -3.693016,0.826373 -7.303918,1.793576 -3.611854,0.967457 -7.1527305,2.073886 -7.1527305,2.073886 6.94e-5,-2.5e-5 1.388e-4,-5.1e-5 2.083e-4,-7.6e-5 0.017132,-0.0072 3.3339,-1.402442 6.7551872,-2.671061 3.421832,-1.268821 6.943753,-2.404657 6.943753,-2.404657 z"
             style="fill:#374548;fill-rule:evenodd;stroke-width:0.201216"
             id="path28" />
          <path
             d="m 17.66344,75.748106 c 0.253356,0.402537 0.506255,0.805207 0.758696,1.208012 -6.6e-5,1.8e-5 -1.32e-4,3.6e-5 -1.99e-4,5.4e-5 -0.01641,0.0037 -3.725573,0.83512 -7.370085,1.812726 -3.6455634,0.977889 -7.21842,2.095811 -7.21842,2.095811 5.73e-5,-2.1e-5 1.146e-4,-4.1e-5 1.719e-4,-6.2e-5 0.01484,-0.0062 3.3621834,-1.412549 6.8167591,-2.691637 3.455027,-1.279255 7.013077,-2.424904 7.013077,-2.424904 z"
             style="fill:#374548;fill-rule:evenodd;stroke-width:0.201216"
             id="path29" />
          <path
             d="m 17.19197,74.859149 c 0.253688,0.402447 0.50692,0.805029 0.759694,1.207744 -3.3e-5,9e-6 -6.7e-5,1.8e-5 -10e-5,2.7e-5 -0.01383,0.0031 -3.758132,0.843919 -7.436287,1.831925 -3.6793075,0.988317 -7.2841851,2.117719 -7.2841851,2.117719 5.14e-5,-1.9e-5 1.027e-4,-3.7e-5 1.541e-4,-5.6e-5 0.012471,-0.0052 3.3903878,-1.422685 6.87827,-2.712234 3.488238,-1.289681 7.082454,-2.445125 7.082454,-2.445125 z"
             style="fill:#374548;fill-rule:evenodd;stroke-width:0.201216"
             id="path30" />
          <path
             d="m 16.7205,73.970192 c 0.254021,0.402358 0.507585,0.80485 0.760692,1.207476 -3.4e-5,9e-6 -6.8e-5,1.9e-5 -1.02e-4,2.8e-5 -0.01117,0.0025 -3.790589,0.852636 -7.50238,1.851053 -3.713045,0.998755 -7.3499487,2.139666 -7.3499487,2.139666 4.21e-5,-1.5e-5 8.42e-5,-3e-5 1.264e-4,-4.6e-5 0.010051,-0.0042 3.4185403,-1.432804 6.9397402,-2.732819 C 13.090091,75.135438 16.7205,73.970192 16.7205,73.970192 Z"
             style="fill:#374548;fill-rule:evenodd;stroke-width:0.201216"
             id="path31" />
          <path
             d="m 16.24903,73.081235 c 0.254353,0.402269 0.50825,0.804671 0.76169,1.207208 -3.4e-5,1e-5 -6.9e-5,1.9e-5 -1.03e-4,2.8e-5 -0.0084,0.0019 -3.822969,0.861385 -7.5684161,1.870205 -3.7468015,1.009185 -7.4157702,2.161591 -7.4157702,2.161591 3.27e-5,-1.2e-5 6.54e-5,-2.4e-5 9.81e-5,-3.6e-5 0.00762,-0.0032 3.4466803,-1.442864 7.0011997,-2.75336 3.5546875,-1.310558 7.2213015,-2.485636 7.2213015,-2.485636 z"
             style="fill:#374548;fill-rule:evenodd;stroke-width:0.201216"
             id="path32" />
          <path
             d="m 15.777559,72.192278 c 0.254686,0.402179 0.508916,0.804493 0.762689,1.20694 -0.0057,0.0013 -3.855405,0.870094 -7.6345281,1.889335 -3.7805791,1.019634 -7.4816198,2.183565 -7.4816198,2.183565 2.31e-5,-8e-6 4.62e-5,-1.7e-5 6.93e-5,-2.5e-5 0.00511,-0.0021 3.4747387,-1.452952 7.0625981,-2.773922 3.5879325,-1.320998 7.2907915,-2.505893 7.2907915,-2.505893 z"
             style="fill:#374548;fill-rule:evenodd;stroke-width:0.201216"
             id="path33" />
          <path
             d="m 15.306089,71.303321 c 0.255018,0.40209 0.509581,0.804314 0.763686,1.206673 -5.177757,1.169009 -10.2685828,2.547329 -15.24800546,4.113975 9.97e-6,-3e-6 1.995e-5,-7e-6 2.992e-5,-1.1e-5 0.0026,-0.0011 3.50279224,-1.462982 7.12399444,-2.794443 3.6211801,-1.331452 7.3602951,-2.526194 7.3602951,-2.526194 z"
             style="fill:#374548;fill-rule:evenodd;stroke-width:0.201216"
             id="path34" />
          <path
             d="m 14.834619,70.414364 c 0.255351,0.402 0.510246,0.804135 0.764684,1.206405 C 10.374751,72.802316 5.2399726,74.194328 0.21943896,75.77582 4.9260887,73.813874 9.8019186,72.018298 14.834619,70.414364 Z"
             style="fill:#374548;fill-rule:evenodd;stroke-width:0.201216"
             id="path35" />
        </g>
        <path
           id="path106"
           style="fill:#37c8ab;stroke:#374548;stroke-width:0.250286;stroke-linecap:round;stroke-linejoin:bevel;paint-order:fill markers stroke"
           d="m 170.04512,41.729452 c -8.59181,-4.186944 -17.50113,-7.971709 -26.6753,-11.167682 l -9.90165,28.282491 c 7.94447,2.803604 15.82719,6.138695 23.59551,9.818659 -0.92816,-6.068888 -2.04472,-12.186043 -3.39694,-18.324866 5.3137,-3.034383 10.79053,-5.904396 16.37838,-8.608602 z" />
        <g
           id="g128"
           transform="matrix(-1,0,0,1.3950475,159.36819,-68.727637)">
          <path
             d="m 25.350116,90.274676 c 0.235327,0.409163 0.470356,0.8184 0.705085,1.227711 -1.82e-4,4.6e-5 -3.64e-4,9.2e-5 -5.46e-4,1.38e-4 -4.510851,0.90312 -9.024257,1.928679 -13.525367,3.054959 1.81e-4,-9.2e-5 3.61e-4,-1.83e-4 5.41e-4,-2.74e-4 4.228245,-1.523589 8.502723,-2.958954 12.820287,-4.282534 z"
             style="fill:#374548;fill-rule:evenodd;stroke-width:0.201216"
             id="path107" />
          <path
             d="m 24.910685,89.374638 c 0.235558,0.409145 0.470817,0.818365 0.705778,1.227658 -1.99e-4,1.5e-5 -3.97e-4,3e-5 -5.95e-4,4.4e-5 -4.54121,0.910044 -9.082194,1.943087 -13.608102,3.077414 1.72e-4,-8.8e-5 3.45e-4,-1.77e-4 5.17e-4,-2.66e-4 0.04711,-0.01694 3.237304,-1.166463 6.451386,-2.239759 3.215735,-1.073849 6.451016,-2.065091 6.451016,-2.065091 z"
             style="fill:#374548;fill-rule:evenodd;stroke-width:0.201216"
             id="path108" />
          <path
             d="m 24.471253,88.474601 c 0.235774,0.409095 0.471249,0.818265 0.706426,1.22751 -2e-4,1.5e-5 -4e-4,3e-5 -5.99e-4,4.5e-5 -0.04805,0.0097 -3.477625,0.699557 -6.889225,1.473595 -3.410974,0.773896 -6.801611,1.626274 -6.801611,1.626274 1.64e-4,-8.6e-5 3.28e-4,-1.72e-4 4.93e-4,-2.59e-4 0.045,-0.01619 3.253668,-1.171741 6.488807,-2.25081 3.236686,-1.079584 6.495709,-2.076355 6.495709,-2.076355 z"
             style="fill:#374548;fill-rule:evenodd;stroke-width:0.201216"
             id="path109" />
          <path
             d="m 24.031822,87.574563 c 0.235989,0.409046 0.47168,0.818167 0.707072,1.227363 -2e-4,1.5e-5 -4.01e-4,3e-5 -6.02e-4,4.5e-5 -0.04582,0.0092 -3.498146,0.704247 -6.930986,1.484009 -3.432332,0.779646 -6.842585,1.638316 -6.842585,1.638316 1.56e-4,-8.4e-5 3.13e-4,-1.68e-4 4.69e-4,-2.51e-4 0.0429,-0.0154 3.270035,-1.176966 6.526229,-2.26182 3.257635,-1.085335 6.540403,-2.087662 6.540403,-2.087662 z"
             style="fill:#374548;fill-rule:evenodd;stroke-width:0.201216"
             id="path110" />
          <path
             d="m 23.59239,86.674525 c 0.236205,0.408997 0.472112,0.818069 0.70772,1.227215 -1.71e-4,8e-6 -3.42e-4,1.5e-5 -5.13e-4,2.3e-5 -0.04358,0.0088 -3.518681,0.708992 -6.972786,1.494471 -3.453717,0.78539 -6.883612,1.650333 -6.883612,1.650333 1.66e-4,-5.1e-5 3.32e-4,-1.01e-4 4.99e-4,-1.52e-4 0.0407,-0.01468 3.286299,-1.182296 6.563556,-2.272938 3.278593,-1.091087 6.585136,-2.098952 6.585136,-2.098952 z"
             style="fill:#374548;fill-rule:evenodd;stroke-width:0.201216"
             id="path111" />
          <path
             d="m 23.152959,85.774488 c 0.23642,0.408948 0.472543,0.81797 0.708367,1.227067 -1.72e-4,8e-6 -3.44e-4,1.6e-5 -5.16e-4,2.3e-5 -0.04128,0.0083 -3.53914,0.713666 -7.014502,1.504872 -3.475093,0.791144 -6.9246313,1.662388 -6.9246313,1.662388 1.547e-4,-4.7e-5 3.095e-4,-9.5e-5 4.642e-4,-1.42e-4 0.038548,-0.01386 3.3026141,-1.187505 6.6009411,-2.283938 3.299555,-1.096842 6.629877,-2.11027 6.629877,-2.11027 z"
             style="fill:#374548;fill-rule:evenodd;stroke-width:0.201216"
             id="path112" />
          <path
             d="m 22.713573,84.874545 c 0.236621,0.408867 0.472944,0.817808 0.708969,1.226824 -1.73e-4,8e-6 -3.46e-4,1.7e-5 -5.19e-4,2.5e-5 -0.03892,0.0079 -3.559542,0.718378 -7.056176,1.515301 -3.496484,0.796889 -6.9656926,1.674414 -6.9656926,1.674414 1.462e-4,-4.5e-5 2.925e-4,-9e-5 4.388e-4,-1.34e-4 0.036328,-0.01308 3.3188758,-1.192727 6.6382968,-2.294918 3.320543,-1.102563 6.674683,-2.121512 6.674683,-2.121512 z"
             style="fill:#374548;fill-rule:evenodd;stroke-width:0.201216"
             id="path113" />
          <path
             d="m 22.274142,83.974507 c 0.236836,0.408818 0.473375,0.81771 0.709616,1.226677 -1.27e-4,3.2e-5 -2.54e-4,6.4e-5 -3.81e-4,9.6e-5 -0.03663,0.0073 -3.580042,0.722981 -7.097969,1.525627 -3.517897,0.802638 -7.0067759,1.686472 -7.0067759,1.686472 1.377e-4,-4.2e-5 2.753e-4,-8.4e-5 4.13e-4,-1.26e-4 0.034113,-0.01225 3.3351259,-1.197917 6.6756279,-2.305903 3.341517,-1.108322 6.719469,-2.132843 6.719469,-2.132843 z"
             style="fill:#374548;fill-rule:evenodd;stroke-width:0.201216"
             id="path114" />
          <path
             d="m 21.83471,83.07447 c 0.237053,0.408768 0.473807,0.817611 0.710264,1.226528 -1.28e-4,3.3e-5 -2.56e-4,6.5e-5 -3.84e-4,9.7e-5 -0.03421,0.0069 -3.60038,0.727678 -7.139596,1.536044 -3.539307,0.808387 -7.0478842,1.698511 -7.0478842,1.698511 1.29e-4,-3.9e-5 2.58e-4,-7.8e-5 3.869e-4,-1.18e-4 0.031839,-0.01145 3.3513163,-1.203144 6.7129143,-2.316916 3.362504,-1.114072 6.764299,-2.144146 6.764299,-2.144146 z"
             style="fill:#374548;fill-rule:evenodd;stroke-width:0.201216"
             id="path115" />
          <path
             d="m 21.395279,82.174432 c 0.237268,0.408719 0.474238,0.817513 0.710911,1.226381 -1.29e-4,3.2e-5 -2.58e-4,6.5e-5 -3.86e-4,9.7e-5 -0.03177,0.0064 -3.620712,0.732319 -7.181221,1.54642 -3.56072,0.814149 -7.0889955,1.710591 -7.0889955,1.710591 1.202e-4,-3.7e-5 2.404e-4,-7.3e-5 3.606e-4,-1.1e-4 0.02957,-0.0106 3.3675079,-1.208318 6.7501999,-2.32789 3.38349,-1.119835 6.809131,-2.155489 6.809131,-2.155489 z"
             style="fill:#374548;fill-rule:evenodd;stroke-width:0.201216"
             id="path116" />
          <path
             d="m 20.955847,81.274394 c 0.237484,0.40867 0.47467,0.817415 0.711559,1.226234 -9.8e-5,2.4e-5 -1.95e-4,4.8e-5 -2.92e-4,7.3e-5 -0.02933,0.0059 -3.64106,0.737017 -7.222888,1.556846 -3.582159,0.819904 -7.1301608,1.722645 -7.1301608,1.722645 1.081e-4,-3.3e-5 2.162e-4,-6.6e-5 3.244e-4,-9.9e-5 0.027246,-0.0098 3.3836464,-1.213531 6.7874494,-2.338894 3.404491,-1.12559 6.854008,-2.166805 6.854008,-2.166805 z"
             style="fill:#374548;fill-rule:evenodd;stroke-width:0.201216"
             id="path117" />
          <path
             d="m 20.516416,80.374357 c 0.237699,0.40862 0.475101,0.817315 0.712205,1.226085 -9.7e-5,2.5e-5 -1.95e-4,4.9e-5 -2.93e-4,7.4e-5 -0.02683,0.0054 -3.661328,0.741642 -7.264466,1.567209 -3.603592,0.825671 -7.1713191,1.734738 -7.1713191,1.734738 9.91e-5,-3.1e-5 1.982e-4,-6.1e-5 2.973e-4,-9.1e-5 0.024917,-0.0089 3.3997748,-1.218686 6.8246868,-2.349853 3.42549,-1.131359 6.898889,-2.178162 6.898889,-2.178162 z"
             style="fill:#374548;fill-rule:evenodd;stroke-width:0.201216"
             id="path118" />
          <path
             d="m 20.076984,79.474319 c 0.237915,0.408571 0.475533,0.817217 0.712853,1.225938 -9.8e-5,2.4e-5 -1.97e-4,4.9e-5 -2.95e-4,7.4e-5 -0.02427,0.0049 -3.68154,0.746306 -7.306003,1.577601 -3.6250371,0.831428 -7.2125184,1.746801 -7.2125184,1.746801 9e-5,-2.7e-5 1.8e-4,-5.5e-5 2.7e-4,-8.2e-5 0.022539,-0.0081 3.4158529,-1.223881 6.8618854,-2.360843 3.446502,-1.137117 6.943808,-2.189489 6.943808,-2.189489 z"
             style="fill:#374548;fill-rule:evenodd;stroke-width:0.201216"
             id="path119" />
          <path
             d="m 19.637553,78.574282 c 0.23813,0.408521 0.475964,0.817118 0.7135,1.225789 -6.6e-5,1.7e-5 -1.32e-4,3.3e-5 -1.98e-4,5e-5 -0.02175,0.0044 -3.701819,0.750933 -7.347622,1.587974 -3.6464996,0.837201 -7.2537347,1.758909 -7.2537347,1.758909 8.08e-5,-2.4e-5 1.616e-4,-4.9e-5 2.423e-4,-7.4e-5 0.020155,-0.0072 3.4319233,-1.229019 6.8990774,-2.371791 3.467514,-1.14289 6.988735,-2.200857 6.988735,-2.200857 z"
             style="fill:#374548;fill-rule:evenodd;stroke-width:0.201216"
             id="path120" />
          <path
             d="m 19.198121,77.674244 c 0.238346,0.408472 0.476396,0.81702 0.714148,1.225642 -6.6e-5,1.7e-5 -1.33e-4,3.3e-5 -1.99e-4,5e-5 -0.01913,0.0039 -3.721968,0.755581 -7.389114,1.598354 -3.6679635,0.842961 -7.29498,1.770985 -7.29498,1.770985 7.15e-5,-2.2e-5 1.429e-4,-4.4e-5 2.144e-4,-6.5e-5 0.017722,-0.0063 3.4479433,-1.234198 6.9362316,-2.382769 3.488537,-1.148653 7.033699,-2.212197 7.033699,-2.212197 z"
             style="fill:#374548;fill-rule:evenodd;stroke-width:0.201216"
             id="path121" />
          <path
             d="m 18.75869,76.774206 c 0.238562,0.408424 0.476827,0.816922 0.714795,1.225495 -6.7e-5,1.6e-5 -1.34e-4,3.3e-5 -2.01e-4,5e-5 -0.01649,0.0033 -3.742109,0.760174 -7.4306,1.608693 -3.6894322,0.848735 -7.3362303,1.783102 -7.3362303,1.783102 5.88e-5,-1.8e-5 1.175e-4,-3.6e-5 1.763e-4,-5.4e-5 0.015289,-0.0054 3.4639627,-1.239321 6.973387,-2.393706 3.509562,-1.154432 7.078673,-2.22358 7.078673,-2.22358 z"
             style="fill:#374548;fill-rule:evenodd;stroke-width:0.201216"
             id="path122" />
          <path
             d="m 18.319258,75.874169 c 0.238778,0.408374 0.477259,0.816822 0.715443,1.225346 -3.4e-5,9e-6 -6.8e-5,1.7e-5 -1.01e-4,2.5e-5 -0.01385,0.0028 -3.762273,0.764825 -7.472139,1.619084 -3.7109298,0.854503 -7.3775394,1.795196 -7.3775394,1.795196 5.25e-5,-1.6e-5 1.05e-4,-3.2e-5 1.575e-4,-4.8e-5 0.012802,-0.0046 3.4799246,-1.244482 7.0104959,-2.404672 3.530598,-1.160199 7.123683,-2.234931 7.123683,-2.234931 z"
             style="fill:#374548;fill-rule:evenodd;stroke-width:0.201216"
             id="path123" />
          <path
             d="m 17.879827,74.974131 c 0.238993,0.408325 0.47769,0.816724 0.71609,1.225199 -3.4e-5,8e-6 -6.8e-5,1.7e-5 -1.02e-4,2.5e-5 -0.01115,0.0023 -3.782351,0.769402 -7.51358,1.62941 -3.7324167,0.860282 -7.4188358,1.807326 -7.4188358,1.807326 4.29e-5,-1.4e-5 8.58e-5,-2.7e-5 1.287e-4,-4e-5 0.010282,-0.0037 3.4958523,-1.249633 7.0475781,-2.41563 3.551642,-1.165969 7.168721,-2.24629 7.168721,-2.24629 z"
             style="fill:#374548;fill-rule:evenodd;stroke-width:0.201216"
             id="path124" />
          <path
             d="m 17.440395,74.074094 c 0.239209,0.408275 0.478122,0.816625 0.716737,1.22505 -3.4e-5,9e-6 -6.8e-5,1.7e-5 -1.02e-4,2.6e-5 -0.0084,0.0017 -3.802372,0.774017 -7.554979,1.639765 -3.7539181,0.86605 -7.4601741,1.819426 -7.4601741,1.819426 3.31e-5,-10e-6 6.63e-5,-2e-5 9.94e-5,-3e-5 0.00777,-0.0028 3.5117822,-1.254731 7.0846607,-2.426548 3.572683,-1.171753 7.213758,-2.257689 7.213758,-2.257689 z"
             style="fill:#374548;fill-rule:evenodd;stroke-width:0.201216"
             id="path125" />
          <path
             d="m 17.000964,73.174056 c 0.239424,0.408226 0.478553,0.816527 0.717384,1.224903 -0.0057,0.0011 -3.822464,0.778597 -7.596465,1.650101 -3.7754353,0.871835 -7.5015285,1.831572 -7.5015285,1.831572 2.33e-5,-7e-6 4.67e-5,-1.4e-5 7e-5,-2.1e-5 0.00519,-0.0019 3.5276517,-1.259865 7.1216982,-2.437494 3.5937383,-1.177528 7.2588413,-2.269061 7.2588413,-2.269061 z"
             style="fill:#374548;fill-rule:evenodd;stroke-width:0.201216"
             id="path126" />
          <path
             d="m 16.561532,72.274018 c 0.23964,0.408177 0.478985,0.816429 0.718032,1.224756 -5.118234,1.041589 -10.1834288,2.216871 -15.1807318,3.504129 1e-5,-3e-6 2.01e-5,-6e-6 3.01e-5,-9e-6 0.00263,-9.14e-4 3.5435309,-1.264948 7.1587445,-2.448403 3.6147932,-1.183316 7.3039252,-2.280473 7.3039252,-2.280473 z"
             style="fill:#374548;fill-rule:evenodd;stroke-width:0.201216"
             id="path127" />
          <path
             d="m 16.122101,71.373981 c 0.239856,0.408127 0.479415,0.81633 0.718679,1.224607 C 11.692186,73.6471 6.5994124,74.829868 1.5773098,76.125174 6.3228373,74.433717 11.17215,72.842132 16.122101,71.373981 Z"
             style="fill:#374548;fill-rule:evenodd;stroke-width:0.201216"
             id="path128" />
        </g>
        <path
           style="fill:#37c8ab;fill-opacity:1;stroke:#374548;stroke-width:0.529167;stroke-linecap:round;stroke-linejoin:bevel;stroke-dasharray:none;stroke-dashoffset:0;stroke-opacity:1;paint-order:fill markers stroke"
           id="rect8"
           width="118.25404"
           height="29.618631"
           x="30.591999"
           y="35.400791"
           d="m 21.739031,29.127009 c 8.067944,-3.793102 16.504754,-6.935068 25.239987,-9.301573 13.875901,-3.719172 28.204088,-5.343704 42.445256,-4.93977 23.439186,0.81734 45.842626,6.524135 66.594356,14.937228 L 144.86358,57.355876 C 126.51758,49.926711 107.55679,44.911282 88.597186,44.492747 l -6e-6,10e-7 c -11.453852,-0.3158 -22.942833,0.973966 -33.927637,3.935471 l -6e-6,1e-6 c -6.935875,1.852679 -13.727945,4.393215 -20.305767,7.497281 z" />
        <path
           style="fill:#374548;fill-opacity:1;stroke:none;stroke-width:0.0815176;stroke-linecap:round;stroke-linejoin:bevel;stroke-dasharray:none;stroke-dashoffset:0;stroke-opacity:1;paint-order:fill markers stroke"
           d="m 34.150423,55.949912 c 2.996764,-1.419796 6.038216,-2.722806 9.117692,-3.89727 l 2.005379,5.265753 C 41.666736,56.684642 37.950716,56.228939 34.150423,55.949912 Z"
           id="path12" />
        <path
           style="fill:#374548;fill-opacity:1;stroke:none;stroke-width:0.0815176;stroke-linecap:round;stroke-linejoin:bevel;stroke-dasharray:none;stroke-dashoffset:0;stroke-opacity:1;paint-order:fill markers stroke"
           d="m 144.97156,57.311084 c -3.19324,-1.2944 -6.40522,-2.515781 -9.63267,-3.652641 l -1.86825,5.331912 c 3.75868,-0.669684 7.59938,-1.227292 11.50092,-1.679271 z"
           id="path129" />
        <path
           d="m 31.891549,27.42239 c 1.4007,-0.552369 2.811011,-1.084596 4.230583,-1.596063 l 8.373119,23.219639 c -1.18333,0.426991 -2.361158,0.872614 -3.533136,1.336247 z m 7.420533,-2.705013 c 1.797995,-0.602396 3.610152,-1.171389 5.435781,-1.705758 1.881638,2.905319 3.700607,5.84013 5.454858,8.8035 0.851138,1.43775 1.686707,2.881969 2.506716,4.332413 0.02394,-0.0062 0.04788,-0.01234 0.07182,-0.01849 L 49.099717,21.814448 c 1.311249,-0.336477 2.626521,-0.65402 3.94534,-0.952689 l 5.458889,24.079327 c -1.2553,0.28481 -2.505355,0.5904 -3.749435,0.91686 -0.494803,-0.903122 -0.995661,-1.803849 -1.502579,-2.70212 -2.54254,-4.505236 -5.236055,-8.94537 -8.073321,-13.317131 -0.02513,0.0076 -0.05026,0.01529 -0.07538,0.02294 l 5.243724,17.240569 c -1.06944,0.324613 -2.13497,0.664817 -3.196342,1.020175 -2.612842,-7.801667 -5.225684,-15.603335 -7.838526,-23.405003 z m 17.050647,-4.565728 c 1.486595,-0.299833 2.977157,-0.575948 4.471012,-0.828427 l 1.732385,10.259943 c 1.186186,-3.717868 2.51567,-7.423691 3.986036,-11.109265 1.501147,-0.192449 3.004729,-0.361367 4.510073,-0.506837 -1.502796,3.181409 -2.891903,6.385083 -4.1654,9.604776 2.392327,4.934598 4.593172,9.928107 6.602735,14.969035 -1.307994,0.125069 -2.613527,0.271296 -3.915829,0.438775 C 68.061923,39.476582 66.446,36.00005 64.7359,32.554012 c -0.380575,1.118396 -0.747593,2.23815 -1.10098,3.359015 l 1.309565,7.755821 c -1.237272,0.20876 -2.470749,0.437067 -3.699759,0.685003 z m 23.58314,22.297548 c -1.82127,0.07782 -3.226158,-0.352499 -4.252369,-1.336537 -1.023898,-1.003481 -1.646287,-2.497264 -1.822199,-4.48679 l -0.124286,-1.405643 c 1.254537,-0.110873 2.510812,-0.203385 3.768258,-0.277604 l 0.09982,1.690503 c 0.09443,1.599136 0.81492,2.349945 2.144774,2.292721 0.65616,-0.02823 1.1414,-0.23249 1.459582,-0.619138 0.340394,-0.410157 0.502023,-1.050407 0.478406,-1.919978 -0.0281,-1.034749 -0.292212,-1.933363 -0.806313,-2.693705 -0.512433,-0.780152 -1.459283,-1.70703 -2.861542,-2.736974 -1.774046,-1.321442 -3.069284,-2.486825 -3.853583,-3.560793 -0.782551,-1.092427 -1.250323,-2.349677 -1.375852,-3.778556 -0.170894,-1.94527 0.252423,-3.493867 1.315868,-4.638775 1.057888,-1.164266 2.705988,-1.822734 4.908487,-1.914692 2.174967,-0.09081 3.829098,0.428425 4.925586,1.499743 1.127623,1.051471 1.666439,2.581867 1.66073,4.581888 l -0.0029,1.023119 c -1.36124,-0.004 -2.722717,0.01164 -4.083861,0.04709 l -0.03307,-1.269687 c -0.02205,-0.846729 -0.223302,-1.452879 -0.609539,-1.818265 -0.386321,-0.388301 -0.944451,-0.5706 -1.669747,-0.540533 -1.483169,0.06148 -2.170106,0.898523 -2.080903,2.46891 0.05069,0.892441 0.36185,1.710469 0.920155,2.458804 0.587216,0.750814 1.594244,1.636147 3.004613,2.702282 1.794534,1.355261 2.994683,2.638092 3.639709,3.783977 0.648086,1.151322 0.955939,2.504018 0.950645,4.057002 -0.0069,2.021053 -0.524976,3.573522 -1.506996,4.660902 -0.962811,1.091539 -2.349378,1.651942 -4.193459,1.730733 z m 13.147598,0.118553 c -1.80328,-0.106986 -3.158898,-0.678544 -4.100058,-1.763025 -0.0998,-0.117836 -0.194111,-0.240573 -0.282909,-0.368244 0,0 -10e-7,0 -10e-7,0 -0.724338,-1.045868 -1.08648,-2.427891 -1.053988,-4.144928 l 0.250964,-13.262439 c 0.03253,-1.719152 0.489624,-3.08324 1.403485,-4.087184 0,0 0,0 0,0 0.111145,-0.121844 0.228966,-0.238183 0.353471,-0.34898 1.170091,-1.016175 2.853479,-1.474898 5.007126,-1.332057 2.152967,0.142796 3.740867,0.817954 4.740215,1.972171 1.029298,1.160364 1.423218,2.699711 1.224158,4.612707 l -0.2694,2.588998 c -1.329642,-0.139364 -2.662196,-0.261973 -3.997512,-0.367317 l 0.220184,-2.842504 c 0.117582,-1.517944 -0.54752,-2.343984 -2.017004,-2.441323 -1.470251,-0.09739 -2.236565,0.634353 -2.310651,2.157213 l -0.669499,13.761755 c -0.07318,1.504276 0.541593,2.27804 1.826145,2.35674 1.28473,0.07871 1.991995,-0.613726 2.108143,-2.113159 l 0.290861,-3.754914 c 1.271962,0.09843 2.542115,0.213853 3.810314,0.345762 L 99.2671,37.000683 c -0.1989,1.911494 -0.850988,3.341936 -1.916362,4.301475 -1.045827,0.964876 -2.453993,1.372579 -4.257271,1.265592 z M 107.30262,18.929104 c 1.99018,0.281535 3.97169,0.596575 5.9441,0.943615 0.0758,8.347169 -0.0652,16.679028 -0.4114,24.991561 -1.24925,-0.256705 -2.49996,-0.497635 -3.75195,-0.722185 0.0584,-1.645374 0.1095,-3.291396 0.15308,-4.93804 l -0.012,0.06932 c -1.46886,-0.255616 -2.94028,-0.489675 -4.41399,-0.701288 -0.46395,1.555742 -0.92035,3.113133 -1.36915,4.672156 -1.16416,-0.161387 -2.32921,-0.307908 -3.495007,-0.43908 2.227367,-8.007646 4.683497,-15.96722 7.356347,-23.876055 z m 2.02499,16.97133 c 0.0933,-4.09928 0.14075,-8.202318 0.14129,-12.308754 -0.0259,-0.0041 -0.0518,-0.0082 -0.0778,-0.01228 -1.25674,3.907974 -2.46912,7.826077 -3.63608,11.754067 1.19276,0.175002 2.38365,0.36414 3.57255,0.566971 z m 10.51625,-14.742357 c 2.12174,0.45325 4.23217,0.942332 6.33073,1.465311 2.12541,0.529669 3.57644,1.460564 4.34261,2.744215 0.7683,1.287208 0.86021,2.891176 0.30778,4.813664 l -0.67244,2.340164 c -0.55202,1.921087 -1.47228,3.236697 -2.73204,3.958324 -1.26363,0.723845 -2.85931,0.820908 -4.8221,0.326185 -0.62259,-0.156924 -1.24592,-0.310494 -1.86996,-0.460644 l -2.34982,9.762092 c -1.24455,-0.302125 -2.49082,-0.589374 -3.73863,-0.861139 z m 3.61627,12.230382 c 0.65919,0.165668 1.19024,0.121169 1.59708,-0.137498 0.43069,-0.251963 0.75596,-0.786568 0.97182,-1.604562 l 0.74672,-2.829602 c 0.21597,-0.8184 0.19322,-1.443676 -0.0722,-1.876811 -0.23982,-0.426039 -0.70379,-0.727499 -1.39066,-0.899116 -0.66132,-0.165232 -1.32374,-0.327005 -1.98725,-0.485255 l -1.77267,7.364386 c 0.63657,0.152722 1.27231,0.308896 1.90719,0.468458 z m 11.3501,-8.406374 c 3.82354,1.13522 7.60381,2.377509 11.33733,3.714579 l -1.19763,3.32766 c -2.32829,-0.834736 -4.67377,-1.631896 -7.03554,-2.388359 l -2.00559,6.220741 c 1.81904,0.584735 3.62962,1.194658 5.4313,1.828201 l -1.1751,3.335042 c -1.77233,-0.624091 -3.55258,-1.22484 -5.34031,-1.80068 l -2.33082,7.229509 c 2.16472,0.700506 4.32098,1.439497 6.4679,2.213852 l -1.19764,3.327662 c -3.33258,-1.203598 -6.68455,-2.320134 -10.05244,-3.337318 z"
           id="text1"
           style="font-size:35.2777px;font-family:'Bebas Neue';-inkscape-font-specification:'Bebas Neue, Normal';fill:#f9f9f9;stroke:#374548;stroke-width:0.529167;stroke-linecap:round;stroke-linejoin:bevel;paint-order:fill markers stroke"
           aria-label="inkscape" />
      </g>
      <path
         style="font-size:12.7px;font-family:'Bebas Neue';-inkscape-font-specification:'Bebas Neue, Normal';fill:#899ca2;stroke-width:0.529167;stroke-linecap:round;stroke-linejoin:bevel;paint-order:fill markers stroke"
         d="m 68.689075,159.91636 0.876744,-1.02153 5.590141,3.97766 0.01596,-0.0198 -4.754753,-4.95108 0.992553,-1.15645 5.614946,3.94879 0.01596,-0.0199 -4.779562,-4.92215 0.785778,-0.91551 6.158824,6.47411 -1.133166,1.32029 -4.962346,-3.42215 -0.01596,0.0198 4.135223,4.3859 -1.207601,1.40701 z m 6.442933,-6.78912 3.054376,-2.27747 0.759156,1.01813 -1.934442,1.4424 1.404431,1.88354 1.537373,-1.14633 0.759148,1.01813 -1.537369,1.14633 1.632179,2.18897 1.934443,-1.4424 0.759155,1.01813 -3.054382,2.27747 z m 5.037368,-3.47316 1.244883,-0.63393 3.457763,6.7903 2.048217,-1.04349 0.576289,1.1317 -3.293146,1.67732 z m 5.284831,-2.45825 1.331746,-0.42193 2.301473,7.26414 2.191347,-0.69428 0.383582,1.2107 -3.523106,1.1162 z m 8.795549,7.09733 c -0.662965,0.0884 -1.195894,-0.0325 -1.598819,-0.36299 -0.394503,-0.33172 -0.637776,-0.84161 -0.729687,-1.52977 l -0.632287,-4.73314 c -0.09198,-0.68815 0.0092,-1.24405 0.302553,-1.66764 0.302049,-0.42471 0.784542,-0.68138 1.447518,-0.76991 0.662976,-0.0885 1.19174,0.0329 1.586244,0.36466 0.402892,0.3306 0.65037,0.83991 0.742302,1.52807 l 0.124455,0.93152 -1.309183,0.17488 -0.136165,-1.01964 c -0.07295,-0.54547 -0.340079,-0.78742 -0.801658,-0.72574 -0.46155,0.0617 -0.655786,0.36533 -0.582721,0.91093 l 0.657515,4.92197 c 0.07171,0.5371 0.338372,0.77485 0.799971,0.71315 0.46157,-0.0617 0.656551,-0.361 0.585014,-0.89793 l -0.179933,-1.34693 1.309183,-0.17489 0.166425,1.24623 c 0.09198,0.68816 -0.01316,1.24459 -0.315127,1.66933 -0.29361,0.42362 -0.771938,0.67971 -1.434904,0.76831 z m 4.906357,-0.18525 c -0.684756,-0.0376 -1.198022,-0.26174 -1.539871,-0.67082 -0.34186,-0.40912 -0.493004,-0.96871 -0.453431,-1.67883 l 0.259867,-4.66637 c 0.0399,-0.71008 0.251885,-1.24946 0.637039,-1.6181 0.385154,-0.36861 0.920072,-0.5339 1.604843,-0.49573 0.68477,0.0376 1.19805,0.26175 1.53988,0.67084 0.34186,0.40909 0.49301,0.9687 0.45343,1.67882 l -0.25975,4.66636 c -0.0399,0.71009 -0.2519,1.24948 -0.63705,1.6181 -0.38517,0.36861 -0.920097,0.53392 -1.604867,0.49574 z m 0.07096,-1.26802 c 0.481845,0.027 0.739028,-0.25144 0.771493,-0.83469 l 0.269704,-4.84389 c 0.0324,-0.58331 -0.19225,-0.88835 -0.674051,-0.91521 -0.481866,-0.027 -0.739039,0.25146 -0.771515,0.83471 l -0.269698,4.84391 c -0.03236,0.58329 0.192249,0.88833 0.674067,0.91517 z m 5.478187,-7.20788 1.91584,0.5525 -0.90889,6.35991 0.0242,0.007 2.61728,-5.86721 1.91581,0.5525 -2.46337,8.54189 -1.26908,-0.36599 1.86514,-6.46743 -0.0241,-0.007 -2.84136,6.18592 -1.12263,-0.32377 0.88891,-6.74895 -0.0242,-0.007 -1.86513,6.46743 -1.17147,-0.33784 z m 8.27381,2.84456 3.34899,1.81669 -0.60558,1.11632 -2.12102,-1.15054 -1.1203,2.06518 1.68566,0.91441 -0.60556,1.11634 -1.68566,-0.91442 -1.30197,2.40011 2.12103,1.15057 -0.60557,1.11633 -3.34899,-1.81669 z m 7.38374,6.46914 -1.07124,-0.99275 0.86327,-0.93151 3.16709,2.93506 -0.86323,0.93152 -1.07124,-0.99276 -1.74246,1.88023 -3.43705,3.70879 -1.02467,-0.94957 z m -1.56545,9.70706 c -0.41011,-0.54966 -0.5679,-1.08686 -0.47348,-1.61155 0.0945,-0.5247 0.42669,-0.99969 0.99671,-1.42498 l 3.74594,-2.79475 c 0.57006,-0.42525 1.11997,-0.60848 1.64984,-0.54957 0.52987,0.059 0.99993,0.3631 1.41014,0.9126 0.4101,0.54965 0.5679,1.08686 0.47348,1.61155 -0.0945,0.52469 -0.42671,0.99969 -0.99675,1.42498 l -3.74592,2.79473 c -0.57,0.42533 -1.11999,0.60848 -1.64985,0.5496 -0.52986,-0.059 -0.9999,-0.36313 -1.41011,-0.91261 z m 1.0179,-0.75944 c 0.28856,0.38685 0.66703,0.4055 1.13525,0.0561 l 3.88843,-2.90108 c 0.46822,-0.34937 0.55807,-0.71742 0.26947,-1.10422 -0.28854,-0.38685 -0.66702,-0.40552 -1.13525,-0.0561 l -3.88844,2.90107 c -0.46821,0.34937 -0.55805,0.71742 -0.26946,1.10422 z"
         id="text7"
         aria-label="WELLCOME TO" />
      <g
         id="g10"
         transform="translate(24.257913,-72.800938)">
        <path
           style="fill:#53676c;fill-opacity:1;fill-rule:evenodd;stroke-width:0.264583"
           id="path8"
           d="m 83.695107,244.64293 c -1.452182,-1.16558 -3.053774,-2.19732 -4.833854,-3.05774 -0.02669,0.0132 -0.05334,0.0265 -0.07996,0.0399 -1.76401,0.7833 -3.360083,1.74332 -4.812902,2.84117 -0.209551,-2.13819 -0.369757,-4.283 -0.479152,-6.43391 -1.722964,-1.37993 -3.647917,-2.62842 -5.735873,-3.74455 2.282264,-1.07787 4.701471,-1.97973 7.265872,-2.66391 1.062165,-1.77476 2.300219,-3.52281 3.730928,-5.23463 0.163103,-0.18797 0.328219,-0.37495 0.495319,-0.56092 1.500416,1.94923 2.778492,3.93466 3.855431,5.94597 2.512919,0.7676 4.873839,1.73796 7.09605,2.87096 -2.118127,1.05926 -4.079777,2.25016 -5.845171,3.57438 -0.183812,2.14589 -0.402962,4.28708 -0.65669,6.42331 z"
           transform="matrix(0.61508281,0,0,0.6433047,24.803326,85.417745)" />
        <path
           style="fill:#53676c;fill-opacity:1;fill-rule:evenodd;stroke-width:0.264583"
           id="path9"
           d="m 85.791807,247.28962 c -2.291692,0.31288 -4.613848,0.72755 -6.945371,1.23697 -1.250766,1.95132 -2.408707,3.92475 -3.485293,5.90221 -1.264258,-1.82573 -2.51538,-3.66358 -3.752715,-5.51332 -2.365835,-0.26528 -4.758222,-0.45168 -7.159833,-0.55878 1.556934,-1.97759 3.210054,-3.92798 4.963027,-5.83263 -0.154058,-2.29645 -0.233057,-4.62132 -0.226676,-6.96876 2.303328,0.75594 4.56937,1.5742 6.787322,2.45348 2.461665,-0.99182 4.95891,-1.88174 7.475905,-2.65785 -0.74439,2.24259 -1.366791,4.48882 -1.881809,6.72826 1.421946,1.72848 2.830543,3.46532 4.225443,5.21042 z"
           transform="matrix(0.41005521,0,0,0.4288698,25.181271,136.76842)" />
        <path
           style="fill:#53676c;fill-opacity:1;fill-rule:evenodd;stroke-width:0.264583"
           id="path10"
           d="m 82.346997,254.15932 c -1.07792,-1.98381 -2.229333,-3.96494 -3.46716,-5.92674 -2.334702,-0.52929 -4.661895,-0.97169 -6.962051,-1.31866 1.420531,-1.72762 2.85898,-3.44468 4.314686,-5.15105 -0.47954,-2.24154 -1.057419,-4.48958 -1.747779,-6.7354 2.506326,0.81452 4.988433,1.73445 7.432803,2.74681 2.239849,-0.85063 4.525291,-1.64229 6.8447,-2.37428 -0.04846,2.32527 -0.171448,4.63 -0.359541,6.9096 1.725343,1.89828 3.357099,3.83506 4.901174,5.79253 -2.402645,0.11382 -4.798829,0.29971 -7.170874,0.55841 -1.253058,1.8407 -2.515157,3.67365 -3.785958,5.49878 z"
           transform="matrix(0.41005521,0,0,0.4288698,56.931273,136.76842)" />
      </g>
    </g>
  </g>
</svg>
